{
  "accessors": [
    {
      "bufferView": 2,
      "componentType": 5126,
      "count": 3040,
      "max": [
        12.860991477966309,
        6.544075012207031,
        2.1249632835388184
      ],
      "min": [
        -15.297471046447754,
        -10.228591918945313,
        -2.0975170135498047
      ],
      "type": "VEC3"
    },
    {
      "bufferView": 2,
      "byteOffset": 36480,
      "componentType": 5126,
      "count": 3040,
      "max": [
        1.0,
        1.0,
        1.0
      ],
      "min": [
        -1.0,
        -1.0,
        -1.0
      ],
      "type": "VEC3"
    },
    {
      "bufferView": 3,
      "componentType": 5126,
      "count": 3040,
      "max": [
        1.0,
        1.0,
        1.0,
        1.0
      ],
      "min": [
        -1.0,
        -1.0,
        -1.0,
        -1.0
      ],
      "type": "VEC4"
    },
    {
      "bufferView": 1,
      "componentType": 5126,
      "count": 3040,
      "max": [
        0.9950356483459473,
        0.9857161641120911
      ],
      "min": [
        0.003751837881281972,
        0.003750182455405593
      ],
      "type": "VEC2"
    },
    {
      "bufferView": 0,
      "componentType": 5125,
      "count": 11214,
      "type": "SCALAR"
    },
    {
      "bufferView": 2,
      "byteOffset": 72960,
      "componentType": 5126,
      "count": 2678,
      "max": [
        12.860251426696777,
        7.617897033691406,
        1.5030348300933838
      ],
      "min": [
        -15.22230052947998,
        2.0703353881835938,
        -1.4931185245513916
      ],
      "type": "VEC3"
    },
    {
      "bufferView": 2,
      "byteOffset": 105096,
      "componentType": 5126,
      "count": 2678,
      "max": [
        1.0,
        1.0,
        1.0
      ],
      "min": [
        -1.0,
        -1.0,
        -1.0
      ],
      "type": "VEC3"
    },
    {
      "bufferView": 3,
      "byteOffset": 48640,
      "componentType": 5126,
      "count": 2678,
      "max": [
        1.0,
        1.0,
        1.0,
        1.0
      ],
      "min": [
        -1.0,
        -1.0,
        -1.0,
        1.0
      ],
      "type": "VEC4"
    },
    {
      "bufferView": 1,
      "byteOffset": 24320,
      "componentType": 5126,
      "count": 2678,
      "max": [
        0.9960784912109375,
        0.9887116551399231
      ],
      "min": [
        0.0037524832878261805,
        0.003750076051801443
      ],
      "type": "VEC2"
    },
    {
      "bufferView": 0,
      "byteOffset": 44856,
      "componentType": 5125,
      "count": 9495,
      "type": "SCALAR"
    },
    {
      "bufferView": 2,
      "byteOffset": 137232,
      "componentType": 5126,
      "count": 326,
      "max": [
        12.208998680114746,
        7.320991516113281,
        0.5694856643676758
      ],
      "min": [
        9.813986778259277,
        2.3815536499023438,
        -0.5695086717605591
      ],
      "type": "VEC3"
    },
    {
      "bufferView": 2,
      "byteOffset": 141144,
      "componentType": 5126,
      "count": 326,
      "max": [
        0.9973849058151245,
        0.9993603825569153,
        1.0
      ],
      "min": [
        -0.9999740123748779,
        -0.9950377345085144,
        -1.0
      ],
      "type": "VEC3"
    },
    {
      "bufferView": 3,
      "byteOffset": 91488,
      "componentType": 5126,
      "count": 326,
      "max": [
        0.43533504009246826,
        0.9997427463531494,
        1.0,
        1.0
      ],
      "min": [
        -0.9994202852249146,
        -0.9845778346061707,
        -1.0,
        1.0
      ],
      "type": "VEC4"
    },
    {
      "bufferView": 1,
      "byteOffset": 45744,
      "componentType": 5126,
      "count": 326,
      "max": [
        0.9915772676467896,
        0.9182115197181702
      ],
      "min": [
        0.38027241826057434,
        0.0037597166374325752
      ],
      "type": "VEC2"
    },
    {
      "bufferView": 0,
      "byteOffset": 82836,
      "componentType": 5125,
      "count": 948,
      "type": "SCALAR"
    },
    {
      "bufferView": 2,
      "byteOffset": 145056,
      "componentType": 5126,
      "count": 120,
      "max": [
        3.055830955505371,
        1.56402587890625,
        0.24837712943553925
      ],
      "min": [
        0.22734642028808594,
        -2.0233383178710938,
        -0.2484019249677658
      ],
      "type": "VEC3"
    },
    {
      "bufferView": 2,
      "byteOffset": 146496,
      "componentType": 5126,
      "count": 120,
      "max": [
        0.0024899763520807028,
        0.9999969005584717,
        0.9999945163726807
      ],
      "min": [
        -0.9999555945396423,
        -0.9999998807907104,
        -0.9999945163726807
      ],
      "type": "VEC3"
    },
    {
      "bufferView": 3,
      "byteOffset": 96704,
      "componentType": 5126,
      "count": 120,
      "max": [
        0.024120962247252464,
        0.9997251629829407,
        1.0,
        1.0
      ],
      "min": [
        -0.9997265934944153,
        -7.314344657061156e-06,
        -0.06278204172849655,
        1.0
      ],
      "type": "VEC4"
    },
    {
      "bufferView": 1,
      "byteOffset": 48352,
      "componentType": 5126,
      "count": 120,
      "max": [
        0.6755594611167908,
        0.9483122825622559
      ],
      "min": [
        0.0037548327818512917,
        0.38563990592956543
      ],
      "type": "VEC2"
    },
    {
      "bufferView": 0,
      "byteOffset": 86628,
      "componentType": 5125,
      "count": 384,
      "type": "SCALAR"
    },
    {
      "bufferView": 2,
      "byteOffset": 147936,
      "componentType": 5126,
      "count": 757,
      "max": [
        11.317902565002441,
        3.3415069580078125,
        1.2387745380401611
      ],
      "min": [
        3.3954954147338867,
        -11.548210144042969,
        -1.2388029098510742
      ],
      "type": "VEC3"
    },
    {
      "bufferView": 2,
      "byteOffset": 157020,
      "componentType": 5126,
      "count": 757,
      "max": [
        1.0,
        1.0,
        1.0
      ],
      "min": [
        -1.0,
        -1.0,
        -1.0
      ],
      "type": "VEC3"
    },
    {
      "bufferView": 3,
      "byteOffset": 98624,
      "componentType": 5126,
      "count": 757,
      "max": [
        0.9999999403953552,
        0.9999920725822449,
        1.0,
        1.0
      ],
      "min": [
        -1.0,
        -0.9999523758888245,
        -1.0,
        1.0
      ],
      "type": "VEC4"
    },
    {
      "bufferView": 1,
      "byteOffset": 49312,
      "componentType": 5126,
      "count": 757,
      "max": [
        0.9962630867958069,
        0.992093026638031
      ],
      "min": [
        0.003755209967494011,
        0.0037753258366137743
      ],
      "type": "VEC2"
    },
    {
      "bufferView": 0,
      "byteOffset": 88164,
      "componentType": 5125,
      "count": 2640,
      "type": "SCALAR"
    }
  ],
  "asset": {
    "extras": {
      "author": "Dmitriy Poskrebyshev (https://sketchfab.com/dr.makakyc)",
      "license": "CC-BY-4.0 (http://creativecommons.org/licenses/by/4.0/)",
      "source": "https://sketchfab.com/3d-models/tt-33-efdf8e2450544a57835967aafb8358fe",
      "title": "TT_33"
    },
    "generator": "Sketchfab-14.32.1",
    "version": "2.0"
  },
  "bufferViews": [
    {
      "buffer": 0,
      "byteLength": 98724,
      "name": "floatBufferViews",
      "target": 34963
    },
    {
      "buffer": 0,
      "byteLength": 55368,
      "byteOffset": 98724,
      "byteStride": 8,
      "name": "floatBufferViews",
      "target": 34962
    },
    {
      "buffer": 0,
      "byteLength": 166104,
      "byteOffset": 154092,
      "byteStride": 12,
      "name": "floatBufferViews",
      "target": 34962
    },
    {
      "buffer": 0,
      "byteLength": 110736,
      "byteOffset": 320196,
      "byteStride": 16,
      "name": "floatBufferViews",
      "target": 34962
    }
  ],
  "buffers": [
    {
      "byteLength": 430932,
      "uri": "scene.bin"
    }
  ],
  "images": [
    {
      "uri": "textures/tt-33_baseColor.png"
    },
    {
      "uri": "textures/tt-33_metallicRoughness.png"
    },
    {
      "uri": "textures/tt-33_normal.png"
    }
  ],
  "materials": [
    {
      "doubleSided": true,
      "name": "tt-33",
      "normalTexture": {
        "index": 2
      },
      "pbrMetallicRoughness": {
        "baseColorTexture": {
          "index": 0
        },
        "metallicRoughnessTexture": {
          "index": 1
        }
      }
    }
  ],
  "meshes": [
    {
      "name": "13_low_tt-33_0",
      "primitives": [
        {
          "attributes": {
            "NORMAL": 1,
            "POSITION": 0,
            "TANGENT": 2,
            "TEXCOORD_0": 3
          },
          "indices": 4,
          "material": 0,
          "mode": 4
        }
      ]
    },
    {
      "name": "16_low_tt-33_0",
      "primitives": [
        {
          "attributes": {
            "NORMAL": 6,
            "POSITION": 5,
            "TANGENT": 7,
            "TEXCOORD_0": 8
          },
          "indices": 9,
          "material": 0,
          "mode": 4
        }
      ]
    },
    {
      "name": "5_low_tt-33_0",
      "primitives": [
        {
          "attributes": {
            "NORMAL": 11,
            "POSITION": 10,
            "TANGENT": 12,
            "TEXCOORD_0": 13
          },
          "indices": 14,
          "material": 0,
          "mode": 4
        }
      ]
    },
    {
      "name": "8_low_tt-33_0",
      "primitives": [
        {
          "attributes": {
            "NORMAL": 16,
            "POSITION": 15,
            "TANGENT": 17,
            "TEXCOORD_0": 18
          },
          "indices": 19,
          "material": 0,
          "mode": 4
        }
      ]
    },
    {
      "name": "1_low.001_tt-33_0",
      "primitives": [
        {
          "attributes": {
            "NORMAL": 21,
            "POSITION": 20,
            "TANGENT": 22,
            "TEXCOORD_0": 23
          },
          "indices": 24,
          "material": 0,
          "mode": 4
        }
      ]
    }
  ],
  "nodes": [
    {
      "children": [
        1
      ],
      "matrix": [
        5.534963130950928,
        0.0,
        0.0,
        0.0,
        0.0,
        -2.796936088993299e-15,
        5.534963130950928,
        0.0,
        0.0,
        -5.534963130950928,
        -2.796936088993299e-15,
        0.0,
        0.0,
        0.0,
        0.0,
        1.0
      ],
      "name": "Sketchfab_model"
    },
    {
      "children": [
        2
      ],
      "matrix": [
        0.009999999776482582,
        0.0,
        0.0,
        0.0,
        0.0,
        -0.009999999776482582,
        0.0,
        0.0,
        0.0,
        0.0,
        -0.009999999776482582,
        0.0,
        0.0,
        0.0,
        0.0,
        1.0
      ],
      "name": "848815c50d69453786382ce9b8d3bb43.fbx"
    },
    {
      "children": [
        3,
        5,
        7,
        9,
        11
      ],
      "name": "RootNode"
    },
    {
      "children": [
        4
      ],
      "matrix": [
        1.0,
        0.0,
        0.0,
        0.0,
        0.0,
        2.220446049250313e-16,
        1.0,
        0.0,
        0.0,
        -1.0,
        2.220446049250313e-16,
        0.0,
        0.0,
        0.0,
        0.0,
        1.0
      ],
      "name": "13_low"
    },
    {
      "mesh": 0,
      "name": "13_low_tt-33_0"
    },
    {
      "children": [
        6
      ],
      "matrix": [
        1.0,
        0.0,
        0.0,
        0.0,
        0.0,
        2.220446049250313e-16,
        1.0,
        0.0,
        0.0,
        -1.0,
        2.220446049250313e-16,
        0.0,
        0.0,
        0.0,
        0.0,
        1.0
      ],
      "name": "16_low"
    },
    {
      "mesh": 1,
      "name": "16_low_tt-33_0"
    },
    {
      "children": [
        8
      ],
      "matrix": [
        1.0,
        0.0,
        0.0,
        0.0,
        0.0,
        2.220446049250313e-16,
        1.0,
        0.0,
        0.0,
        -1.0,
        2.220446049250313e-16,
        0.0,
        0.0,
        0.0,
        0.0,
        1.0
      ],
      "name": "5_low"
    },
    {
      "mesh": 2,
      "name": "5_low_tt-33_0"
    },
    {
      "children": [
        10
      ],
      "matrix": [
        1.0,
        0.0,
        0.0,
        0.0,
        0.0,
        2.220446049250313e-16,
        1.0,
        0.0,
        0.0,
        -1.0,
        2.220446049250313e-16,
        0.0,
        0.0,
        0.0,
        0.0,
        1.0
      ],
      "name": "8_low"
    },
    {
      "mesh": 3,
      "name": "8_low_tt-33_0"
    },
    {
      "children": [
        12
      ],
      "matrix": [
        1.0,
        0.0,
        0.0,
        0.0,
        0.0,
        2.220446049250313e-16,
        1.0,
        0.0,
        0.0,
        -1.0,
        2.220446049250313e-16,
        0.0,
        0.0,
        0.0,
        0.0,
        1.0
      ],
      "name": "1_low.001"
    },
    {
      "mesh": 4,
      "name": "1_low.001_tt-33_0"
    }
  ],
  "samplers": [
    {
      "magFilter": 9729,
      "minFilter": 9987,
      "wrapS": 10497,
      "wrapT": 10497
    }
  ],
  "scene": 0,
  "scenes": [
    {
      "name": "Sketchfab_Scene",
      "nodes": [
        0
      ]
    }
  ],
  "textures": [
    {
      "sampler": 0,
      "source": 0
    },
    {
      "sampler": 0,
      "source": 1
    },
    {
      "sampler": 0,
      "source": 2
    }
  ]
}
